<svg>
    <defs>

        <!--INSTAGRAM-->

        <svg aria-hidden="true" style="position: absolute; width: 0; height: 0; overflow: hidden;"
            version="1.1" xmlns="http://www.w3.org/2000/svg"
            xmlns:xlink="http://www.w3.org/1999/xlink">
            <defs>
                <symbol id="icon-instagram" viewBox="0 0 24 28">
                    <path
                        d="M16 14c0-2.203-1.797-4-4-4s-4 1.797-4 4 1.797 4 4 4 4-1.797 4-4zM18.156 14c0 3.406-2.75 6.156-6.156 6.156s-6.156-2.75-6.156-6.156 2.75-6.156 6.156-6.156 6.156 2.75 6.156 6.156zM19.844 7.594c0 0.797-0.641 1.437-1.437 1.437s-1.437-0.641-1.437-1.437 0.641-1.437 1.437-1.437 1.437 0.641 1.437 1.437zM12 4.156c-1.75 0-5.5-0.141-7.078 0.484-0.547 0.219-0.953 0.484-1.375 0.906s-0.688 0.828-0.906 1.375c-0.625 1.578-0.484 5.328-0.484 7.078s-0.141 5.5 0.484 7.078c0.219 0.547 0.484 0.953 0.906 1.375s0.828 0.688 1.375 0.906c1.578 0.625 5.328 0.484 7.078 0.484s5.5 0.141 7.078-0.484c0.547-0.219 0.953-0.484 1.375-0.906s0.688-0.828 0.906-1.375c0.625-1.578 0.484-5.328 0.484-7.078s0.141-5.5-0.484-7.078c-0.219-0.547-0.484-0.953-0.906-1.375s-0.828-0.688-1.375-0.906c-1.578-0.625-5.328-0.484-7.078-0.484zM24 14c0 1.656 0.016 3.297-0.078 4.953-0.094 1.922-0.531 3.625-1.937 5.031s-3.109 1.844-5.031 1.937c-1.656 0.094-3.297 0.078-4.953 0.078s-3.297 0.016-4.953-0.078c-1.922-0.094-3.625-0.531-5.031-1.937s-1.844-3.109-1.937-5.031c-0.094-1.656-0.078-3.297-0.078-4.953s-0.016-3.297 0.078-4.953c0.094-1.922 0.531-3.625 1.937-5.031s3.109-1.844 5.031-1.937c1.656-0.094 3.297-0.078 4.953-0.078s3.297-0.016 4.953 0.078c1.922 0.094 3.625 0.531 5.031 1.937s1.844 3.109 1.937 5.031c0.094 1.656 0.078 3.297 0.078 4.953z"></path>
                </symbol>
                <symbol id="icon-instagram1" viewBox="0 0 32 32">
                    <path
                        d="M16 2.881c4.275 0 4.781 0.019 6.462 0.094 1.563 0.069 2.406 0.331 2.969 0.55 0.744 0.288 1.281 0.638 1.837 1.194 0.563 0.563 0.906 1.094 1.2 1.838 0.219 0.563 0.481 1.412 0.55 2.969 0.075 1.688 0.094 2.194 0.094 6.463s-0.019 4.781-0.094 6.463c-0.069 1.563-0.331 2.406-0.55 2.969-0.288 0.744-0.637 1.281-1.194 1.837-0.563 0.563-1.094 0.906-1.837 1.2-0.563 0.219-1.413 0.481-2.969 0.55-1.688 0.075-2.194 0.094-6.463 0.094s-4.781-0.019-6.463-0.094c-1.563-0.069-2.406-0.331-2.969-0.55-0.744-0.288-1.281-0.637-1.838-1.194-0.563-0.563-0.906-1.094-1.2-1.837-0.219-0.563-0.481-1.413-0.55-2.969-0.075-1.688-0.094-2.194-0.094-6.463s0.019-4.781 0.094-6.463c0.069-1.563 0.331-2.406 0.55-2.969 0.288-0.744 0.638-1.281 1.194-1.838 0.563-0.563 1.094-0.906 1.838-1.2 0.563-0.219 1.412-0.481 2.969-0.55 1.681-0.075 2.188-0.094 6.463-0.094zM16 0c-4.344 0-4.887 0.019-6.594 0.094-1.7 0.075-2.869 0.35-3.881 0.744-1.056 0.412-1.95 0.956-2.837 1.85-0.894 0.888-1.438 1.781-1.85 2.831-0.394 1.019-0.669 2.181-0.744 3.881-0.075 1.713-0.094 2.256-0.094 6.6s0.019 4.887 0.094 6.594c0.075 1.7 0.35 2.869 0.744 3.881 0.413 1.056 0.956 1.95 1.85 2.837 0.887 0.887 1.781 1.438 2.831 1.844 1.019 0.394 2.181 0.669 3.881 0.744 1.706 0.075 2.25 0.094 6.594 0.094s4.888-0.019 6.594-0.094c1.7-0.075 2.869-0.35 3.881-0.744 1.050-0.406 1.944-0.956 2.831-1.844s1.438-1.781 1.844-2.831c0.394-1.019 0.669-2.181 0.744-3.881 0.075-1.706 0.094-2.25 0.094-6.594s-0.019-4.887-0.094-6.594c-0.075-1.7-0.35-2.869-0.744-3.881-0.394-1.063-0.938-1.956-1.831-2.844-0.887-0.887-1.781-1.438-2.831-1.844-1.019-0.394-2.181-0.669-3.881-0.744-1.712-0.081-2.256-0.1-6.6-0.1v0z"></path>
                    <path
                        d="M16 7.781c-4.537 0-8.219 3.681-8.219 8.219s3.681 8.219 8.219 8.219 8.219-3.681 8.219-8.219c0-4.537-3.681-8.219-8.219-8.219zM16 21.331c-2.944 0-5.331-2.387-5.331-5.331s2.387-5.331 5.331-5.331c2.944 0 5.331 2.387 5.331 5.331s-2.387 5.331-5.331 5.331z"></path>
                    <path
                        d="M26.462 7.456c0 1.060-0.859 1.919-1.919 1.919s-1.919-0.859-1.919-1.919c0-1.060 0.859-1.919 1.919-1.919s1.919 0.859 1.919 1.919z"></path>
                </symbol>
            </defs>
        </svg>

        <!--TWITTER-->

        <svg aria-hidden="true" style="position: absolute; width: 0; height: 0; overflow: hidden;"
            version="1.1" xmlns="http://www.w3.org/2000/svg"
            xmlns:xlink="http://www.w3.org/1999/xlink">
            <defs>
                <symbol id="icon-twitter" viewBox="0 0 32 32">
                    <path
                        d="M32 7.075c-1.175 0.525-2.444 0.875-3.769 1.031 1.356-0.813 2.394-2.1 2.887-3.631-1.269 0.75-2.675 1.3-4.169 1.594-1.2-1.275-2.906-2.069-4.794-2.069-3.625 0-6.563 2.938-6.563 6.563 0 0.512 0.056 1.012 0.169 1.494-5.456-0.275-10.294-2.888-13.531-6.862-0.563 0.969-0.887 2.1-0.887 3.3 0 2.275 1.156 4.287 2.919 5.463-1.075-0.031-2.087-0.331-2.975-0.819 0 0.025 0 0.056 0 0.081 0 3.181 2.263 5.838 5.269 6.437-0.55 0.15-1.131 0.231-1.731 0.231-0.425 0-0.831-0.044-1.237-0.119 0.838 2.606 3.263 4.506 6.131 4.563-2.25 1.762-5.075 2.813-8.156 2.813-0.531 0-1.050-0.031-1.569-0.094 2.913 1.869 6.362 2.95 10.069 2.95 12.075 0 18.681-10.006 18.681-18.681 0-0.287-0.006-0.569-0.019-0.85 1.281-0.919 2.394-2.075 3.275-3.394z"></path>
                </symbol>
            </defs>
        </svg>

        <!--FACEBOOK-->

        <svg aria-hidden="true" style="position: absolute; width: 0; height: 0; overflow: hidden;"
            version="1.1" xmlns="http://www.w3.org/2000/svg"
            xmlns:xlink="http://www.w3.org/1999/xlink">
            <defs>
                <symbol id="icon-facebook" viewBox="0 0 32 32">
                    <path
                        d="M19 6h5v-6h-5c-3.86 0-7 3.14-7 7v3h-4v6h4v16h6v-16h5l1-6h-6v-3c0-0.542 0.458-1 1-1z"></path>
                </symbol>
                <symbol id="icon-twitter" viewBox="0 0 32 32">
                    <path
                        d="M32 7.075c-1.175 0.525-2.444 0.875-3.769 1.031 1.356-0.813 2.394-2.1 2.887-3.631-1.269 0.75-2.675 1.3-4.169 1.594-1.2-1.275-2.906-2.069-4.794-2.069-3.625 0-6.563 2.938-6.563 6.563 0 0.512 0.056 1.012 0.169 1.494-5.456-0.275-10.294-2.888-13.531-6.862-0.563 0.969-0.887 2.1-0.887 3.3 0 2.275 1.156 4.287 2.919 5.463-1.075-0.031-2.087-0.331-2.975-0.819 0 0.025 0 0.056 0 0.081 0 3.181 2.263 5.838 5.269 6.437-0.55 0.15-1.131 0.231-1.731 0.231-0.425 0-0.831-0.044-1.237-0.119 0.838 2.606 3.263 4.506 6.131 4.563-2.25 1.762-5.075 2.813-8.156 2.813-0.531 0-1.050-0.031-1.569-0.094 2.913 1.869 6.362 2.95 10.069 2.95 12.075 0 18.681-10.006 18.681-18.681 0-0.287-0.006-0.569-0.019-0.85 1.281-0.919 2.394-2.075 3.275-3.394z"></path>
                </symbol>
            </defs>
        </svg>

        <!--LINKEDIN-->

        <svg width="44" height="44" viewBox="0 0 44 44" fill="none"
            xmlns="http://www.w3.org/2000/svg">
            <path
                d="M44 21.9999C44 28.0751 41.5376 33.5751 37.5564 37.5563C33.5751 41.5375 28.0751 43.9999 22 43.9999C15.9249 43.9999 10.4249 41.5375 6.44365 37.5563C2.46243 33.5751 0 28.0751 0 21.9999C0 15.9248 2.46243 10.4248 6.44365 6.44359C10.4249 2.46237 15.9249 -6.10352e-05 22 -6.10352e-05C28.0751 -6.10352e-05 33.5751 2.46237 37.5564 6.44359C41.5376 10.4248 44 15.9248 44 21.9999Z"
                fill="white" />
            <g clip-path="url(#clip0_1_999)">
                <path
                    d="M31.9951 32V31.9992H32.0001V24.6642C32.0001 21.0759 31.2276 18.3117 27.0326 18.3117C25.0159 18.3117 23.6626 19.4184 23.1101 20.4675H23.0517V18.6467H19.0742V31.9992H23.2159V25.3875C23.2159 23.6467 23.5459 21.9634 25.7017 21.9634C27.8259 21.9634 27.8576 23.95 27.8576 25.4992V32H31.9951Z"
                    fill="#AFB1B8" />
                <path d="M12.3301 18.6475H16.4767V32H12.3301V18.6475Z" />
                <path
                    d="M14.4017 12C13.0758 12 12 13.0758 12 14.4017C12 15.7275 13.0758 16.8258 14.4017 16.8258C15.7275 16.8258 16.8033 15.7275 16.8033 14.4017C16.8025 13.0758 15.7267 12 14.4017 12V12Z"
                    fill="#AFB1B8" />
            </g>
            <defs>
                <clipPath id="clip0_1_999">
                    <rect width="20" height="20" fill="white" transform="translate(12 12)" />
                </clipPath>
            </defs>
        </svg>


        <!--CUADRADO-->
        <symbol id="icon-company4one" viewBox="0 0 64 32">
            <path
                d="M22.943 4.279l4.231 4.005-7.854-0.005v19.434h20.528v-7.431l4.226 4.001v-20.005h-21.132zM39.663 19.813l-11.997-11.357h11.997v11.357zM35.938 24.871h-13.369v-13.070h0.945v12.185h12.424v0.885zM25.727 30.301l-0.494 1.017-0.494-1.017h-0.414l0.721 1.356v0.79h0.374v-0.79l0.719-1.356h-0.412zM26.347 32.447l0.174-0.5h0.831l0.175 0.5h0.389l-0.812-2.146h-0.335l-0.81 2.146h0.388zM26.937 30.757l0.311 0.89h-0.622l0.311-0.89zM28.903 31.595c-0.051 0.076-0.081 0.169-0.081 0.269 0 0.001 0 0.002 0 0.004v-0c0 0.181 0.063 0.328 0.19 0.441s0.298 0.168 0.51 0.168c0.213 0 0.395-0.058 0.549-0.173l0.121 0.143h0.415l-0.315-0.373c0.124-0.169 0.185-0.386 0.185-0.65h-0.311c0 0.145-0.030 0.276-0.090 0.394l-0.414-0.489 0.146-0.106c0.089-0.060 0.163-0.135 0.221-0.221l0.002-0.003c0.042-0.070 0.068-0.154 0.068-0.244 0-0.001 0-0.003 0-0.004v0c0-0.003 0-0.005 0-0.008 0-0.132-0.058-0.251-0.15-0.332l-0-0c-0.095-0.086-0.223-0.139-0.362-0.139-0.007 0-0.015 0-0.022 0l0.001-0c-0.173 0-0.31 0.049-0.412 0.147s-0.153 0.23-0.153 0.398c0 0.069 0.016 0.14 0.048 0.214 0.034 0.074 0.092 0.163 0.175 0.268-0.159 0.114-0.266 0.213-0.319 0.296zM29.872 32.070c-0.092 0.074-0.21 0.12-0.338 0.121h-0c-0.005 0-0.011 0-0.017 0-0.092 0-0.177-0.035-0.24-0.094l0 0c-0.059-0.058-0.096-0.14-0.096-0.23 0-0.004 0-0.008 0-0.013l-0 0.001c0-0.115 0.059-0.217 0.177-0.307l0.046-0.033 0.469 0.553zM29.487 31.119c-0.101-0.125-0.152-0.228-0.152-0.311 0-0.072 0.021-0.131 0.062-0.179 0.039-0.044 0.095-0.071 0.157-0.071 0.003 0 0.007 0 0.010 0l-0-0c0.002-0 0.005-0 0.008-0 0.059 0 0.113 0.023 0.153 0.061l-0-0c0.042 0.040 0.063 0.088 0.063 0.143 0 0.002 0 0.005 0 0.007 0 0.080-0.035 0.151-0.091 0.2l-0 0-0.046 0.037-0.164 0.112zM32.981 32.285c0.147-0.129 0.232-0.308 0.254-0.536h-0.371c-0.020 0.153-0.066 0.263-0.14 0.328s-0.184 0.099-0.33 0.099c-0.16 0-0.282-0.061-0.365-0.183s-0.124-0.299-0.124-0.531v-0.19c0.002-0.229 0.047-0.402 0.133-0.52 0.088-0.119 0.213-0.178 0.374-0.178 0.139 0 0.245 0.034 0.317 0.103s0.118 0.179 0.136 0.333h0.371c-0.024-0.235-0.107-0.417-0.252-0.545s-0.335-0.193-0.572-0.193c-0.176 0-0.331 0.042-0.465 0.126-0.135 0.086-0.241 0.208-0.306 0.351l-0.002 0.005c-0.068 0.15-0.108 0.326-0.108 0.51 0 0.009 0 0.018 0 0.026l-0-0.001v0.2c0.003 0.197 0.040 0.371 0.11 0.52s0.171 0.264 0.301 0.346c0.131 0.081 0.282 0.121 0.453 0.121 0.245 0 0.441-0.063 0.588-0.191zM35.172 31.984c0.072-0.159 0.109-0.344 0.109-0.554v-0.119c0-0.007 0-0.015 0-0.023 0-0.191-0.041-0.372-0.115-0.535l0.003 0.008c-0.068-0.152-0.176-0.275-0.311-0.36l-0.003-0.002c-0.135-0.085-0.29-0.127-0.465-0.127s-0.33 0.042-0.465 0.128c-0.135 0.085-0.239 0.206-0.314 0.367-0.070 0.155-0.111 0.337-0.111 0.528 0 0.009 0 0.019 0 0.028l-0-0.001v0.121c0.001 0.205 0.038 0.386 0.112 0.543 0.075 0.158 0.18 0.279 0.316 0.365 0.136 0.085 0.292 0.127 0.465 0.127 0.176 0 0.331-0.042 0.466-0.127 0.135-0.086 0.24-0.208 0.312-0.366zM34.773 30.771c0.091 0.127 0.135 0.31 0.135 0.548v0.112c0 0.241-0.045 0.426-0.134 0.551-0.088 0.126-0.215 0.189-0.38 0.189-0.005 0-0.010 0-0.015 0-0.152 0-0.286-0.076-0.366-0.192l-0.001-0.001c-0.092-0.129-0.137-0.311-0.137-0.547v-0.124c0.002-0.231 0.048-0.409 0.138-0.535 0.081-0.116 0.213-0.19 0.363-0.19 0.006 0 0.011 0 0.017 0l-0.001-0c0.165 0 0.293 0.063 0.382 0.19z"></path>
        </symbol>



    </defs>
</svg>